<svg xmlns="http://www.w3.org/2000/svg" viewBox="0 0 1280 720" data-pptx-page-role="content" font-family="&quot;Times New Roman&quot;, &quot;Microsoft YaHei&quot;, &quot;微软雅黑&quot;" font-size="24">
  <rect id="background" data-pptx-role="background" x="0" y="0" width="1280" height="720" fill="#FFFFFF" />
  <path id="grid" data-pptx-role="decoration" d="M40 0V720 M200 0V720 M360 0V720 M520 0V720 M680 0V720 M840 0V720 M1000 0V720 M1160 0V720 M0 120H1280 M0 280H1280 M0 440H1280 M0 600H1280" fill="none" stroke="#D4EEF6" stroke-width="1" stroke-opacity="0.85" />
  <g id="header" data-pptx-bounds="50 30 1180 98">
    <text x="60" y="78" font-size="36" font-weight="700" fill="#C00000">项目仍可守住12月验收，但四项高关注风险必须立即升级</text>
    <text x="60" y="111" font-family="&quot;Times New Roman&quot;, &quot;Microsoft YaHei&quot;, &quot;微软雅黑&quot;" font-size="18" fill="#87D9F5">EXECUTIVE SIGNAL BOARD · DATA DATE 2026-08-12</text>
  </g>
  <g id="overall-signal" data-pptx-bounds="54 154 342 430" font-family="&quot;Times New Roman&quot;, &quot;Microsoft YaHei&quot;, &quot;微软雅黑&quot;">
    <rect x="60" y="160" width="292" height="410" fill="#E7F6FB" stroke="#87D9F5" stroke-width="2" />
    
  <g transform="translate(84, 184) scale(1.66667)" fill="none" stroke="#3D9EC4" stroke-width="2">
    <path d="M3 7a2 2 0 1 0 4 0a2 2 0 1 0 -4 0" />
    <path d="M14 15a2 2 0 1 0 4 0a2 2 0 1 0 -4 0" />
    <path d="M15 6a3 3 0 1 0 6 0a3 3 0 1 0 -6 0" />
    <path d="M3 18a3 3 0 1 0 6 0a3 3 0 1 0 -6 0" />
    <path d="M9 17l5 -1.5" />
    <path d="M6.5 8.5l7.81 5.37" />
    <path d="M7 7l8 -1" />
  </g>
    <text x="84" y="256" font-size="18" letter-spacing="2" fill="#6B6B6B">OVERALL PROGRESS</text>
    <text x="84" y="342" font-size="36" font-weight="700" fill="#3D9EC4">68.6%</text>
    <line x1="84" y1="370" x2="324" y2="370" stroke="#87D9F5" stroke-width="2" />
    <text x="84" y="412" font-family="&quot;Times New Roman&quot;, &quot;Microsoft YaHei&quot;, &quot;微软雅黑&quot;" font-size="24" fill="#222222">较基线落后 4.1 个百分点</text>
    <text x="84" y="460" font-family="&quot;Times New Roman&quot;, &quot;Microsoft YaHei&quot;, &quot;微软雅黑&quot;" font-size="20" fill="#C00000">关键路径最大风险：15天</text>
    <text x="84" y="500" font-family="&quot;Times New Roman&quot;, &quot;Microsoft YaHei&quot;, &quot;微软雅黑&quot;" font-size="20" fill="#3D9EC4">及时决策可追回：7–10天</text>
    <text x="84" y="544" font-size="18" fill="#6B6B6B">TARGET · 2026-12-15</text>
  </g>
  <g id="signal-progress" data-pptx-bounds="396 154 414 196">
    <line x1="402" y1="168" x2="402" y2="334" stroke="#3D9EC4" stroke-width="5" />
    
  <g transform="translate(426, 168) scale(1.41667)" fill="none" stroke="#3D9EC4" stroke-width="2">
    <path d="M3 21h4l13 -13a1.5 1.5 0 0 0 -4 -4l-13 13v4" />
    <path d="M14.5 5.5l4 4" />
    <path d="M12 8l-5 -5l-4 4l5 5" />
    <path d="M7 8l-1.5 1.5" />
    <path d="M16 12l5 5l-4 4l-5 -5" />
    <path d="M16 17l-1.5 1.5" />
  </g>
    <text x="478" y="192" font-size="28" font-weight="700" fill="#222222">进展</text>
    <text font-size="24" fill="#222222" x="426" y="228">6 个设备包已到场，</text><text font-size="24" fill="#222222" x="426" y="254">5 个完成安装</text><text font-size="24" fill="#222222" x="426" y="284">3 个进入联调，</text><text font-size="24" fill="#222222" x="426" y="310">1 个阶段验收通过</text><text x="426" y="334" font-family="&quot;Times New Roman&quot;, &quot;Microsoft YaHei&quot;, &quot;微软雅黑&quot;" font-size="18" fill="#6B6B6B">10 → 9 → 6 → 5 → 3 → 1</text>
  </g>
  <g id="signal-capability" data-pptx-bounds="810 154 430 196">
    <line x1="816" y1="168" x2="816" y2="334" stroke="#87D9F5" stroke-width="5" />
    
  <g transform="translate(840, 168) scale(1.41667)" fill="none" stroke="#87D9F5" stroke-width="2">
    <path d="M2 12h2l2 -5l3 10l3 -10l3 10l3 -10l1.5 5h2.5" />
  </g>
    <text x="892" y="192" font-size="28" font-weight="700" fill="#222222">能力</text>
    <text font-size="24" fill="#222222" x="840" y="228">已打通首条</text><text font-size="24" fill="#222222" x="840" y="254">“处理—量测—归档”闭环</text><text font-size="24" fill="#222222" x="840" y="284">20 类方法中 8 类可执行，</text><text font-size="24" fill="#222222" x="840" y="310">覆盖率 40%</text><text x="840" y="334" font-family="&quot;Times New Roman&quot;, &quot;Microsoft YaHei&quot;, &quot;微软雅黑&quot;" font-size="18" fill="#6B6B6B">MINIMUM CLOSED LOOP · E01</text>
  </g>
  <g id="signal-risk" data-pptx-bounds="396 354 414 178">
    <line x1="402" y1="364" x2="402" y2="520" stroke="#C00000" stroke-width="5" />
    
  <g transform="translate(426, 364) scale(1.41667)" fill="none" stroke="#C00000" stroke-width="2">
    <path d="M12 9v4" />
    <path d="M10.363 3.591l-8.106 13.534a1.914 1.914 0 0 0 1.636 2.871h16.214a1.914 1.914 0 0 0 1.636 -2.87l-8.106 -13.536a1.914 1.914 0 0 0 -3.274 0" />
    <path d="M12 16h.01" />
  </g>
    <text x="478" y="388" font-size="28" font-weight="700" fill="#222222">风险</text>
    <text font-size="24" fill="#222222" x="426" y="428">UPS｜数据合同</text><text font-size="24" fill="#222222" x="426" y="454">物流｜量测</text><text font-size="24" fill="#C00000" x="426" y="484">R01 / R02 / R04 / R06</text><text font-size="24" fill="#C00000" x="426" y="510">管理升级</text></g>
  <g id="signal-decision" data-pptx-bounds="810 354 430 178">
    <line x1="816" y1="364" x2="816" y2="492" stroke="#C00000" stroke-width="5" />
    
  <g transform="translate(840, 364) scale(1.41667)" fill="none" stroke="#C00000" stroke-width="2">
    <path d="M9.615 20h-2.615a2 2 0 0 1 -2 -2v-12a2 2 0 0 1 2 -2h8a2 2 0 0 1 2 2v8" />
    <path d="M14 19l2 2l4 -4" />
    <path d="M9 8h4" />
    <path d="M9 12h2" />
  </g>
    <text x="892" y="388" font-size="28" font-weight="700" fill="#222222">决策</text>
    <text x="840" y="434" font-size="24" fill="#222222">D01–D05｜8月16–21日完成</text>
    <text x="840" y="472" font-size="24" fill="#3D9EC4">按时确认即可维持阶段验收目标</text>
  </g>
  <g id="decision-rail" data-pptx-bounds="360 536 860 82" font-family="&quot;Times New Roman&quot;, &quot;Microsoft YaHei&quot;, &quot;微软雅黑&quot;">
    <line x1="420" y1="566" x2="1190" y2="566" stroke="#87D9F5" stroke-width="2" />
    <circle cx="430" cy="566" r="11" fill="#C00000" /><circle cx="610" cy="566" r="11" fill="#C00000" /><circle cx="790" cy="566" r="11" fill="#C00000" /><circle cx="970" cy="566" r="11" fill="#C00000" /><circle cx="1150" cy="566" r="11" fill="#C00000" />
    <text x="430" y="602" font-size="18" fill="#222222" text-anchor="middle">D01 · 08/16</text><text x="610" y="602" font-size="18" fill="#222222" text-anchor="middle">D02 · 08/18</text><text x="790" y="602" font-size="18" fill="#222222" text-anchor="middle">D03 · 08/19</text><text x="970" y="602" font-size="18" fill="#222222" text-anchor="middle">D04 · 08/20</text><text x="1150" y="602" font-size="18" fill="#222222" text-anchor="middle">D05 · 08/21</text>
  </g>
  <g id="footer" data-pptx-bounds="56 648 1168 34">
    <text x="60" y="674" font-size="16" fill="#6B6B6B">演示用虚构数据｜不代表真实项目或行业标准</text>
    <text x="1220" y="674" font-family="&quot;Times New Roman&quot;, &quot;Microsoft YaHei&quot;, &quot;微软雅黑&quot;" font-size="16" fill="#6B6B6B" text-anchor="end">02 / 11</text>
  </g>
</svg>